<mxfile host="app.diagrams.net" modified="2023-07-26T21:21:59.285Z" agent="Mozilla/5.0 (Windows NT 10.0; Win64; x64) AppleWebKit/537.36 (KHTML, like Gecko) Chrome/115.0.0.0 Safari/537.36" etag="fG7VVpnBi089wDeovp1p" version="21.6.5" type="github">
  <diagram name="Page-1" id="ybURVlBU5D4kXEZvElC1">
    <mxGraphModel dx="714" dy="1598" grid="1" gridSize="10" guides="1" tooltips="1" connect="1" arrows="1" fold="1" page="1" pageScale="1" pageWidth="850" pageHeight="1100" math="0" shadow="0">
      <root>
        <mxCell id="0" />
        <mxCell id="1" parent="0" />
        <mxCell id="8y-FWkT5chtIzJiCy5gt-1" value="&lt;b style=&quot;font-size: 21px;&quot;&gt;&lt;font style=&quot;font-size: 21px;&quot;&gt;Stream Counter/Heavy Hitters&lt;/font&gt;&lt;/b&gt;" style="text;html=1;strokeColor=none;fillColor=none;align=center;verticalAlign=middle;whiteSpace=wrap;rounded=0;fontSize=21;" parent="1" vertex="1">
          <mxGeometry x="50" y="690" width="390" height="70" as="geometry" />
        </mxCell>
        <mxCell id="8y-FWkT5chtIzJiCy5gt-7" value="" style="endArrow=classic;html=1;rounded=0;exitX=0.944;exitY=0.875;exitDx=0;exitDy=0;entryX=0;entryY=0.5;entryDx=0;entryDy=0;exitPerimeter=0;" parent="1" source="8y-FWkT5chtIzJiCy5gt-18" target="8y-FWkT5chtIzJiCy5gt-8" edge="1">
          <mxGeometry width="50" height="50" relative="1" as="geometry">
            <mxPoint x="365" y="626" as="sourcePoint" />
            <mxPoint x="450" y="626" as="targetPoint" />
          </mxGeometry>
        </mxCell>
        <mxCell id="8y-FWkT5chtIzJiCy5gt-8" value="Data Partitioner" style="rounded=1;whiteSpace=wrap;html=1;" parent="1" vertex="1">
          <mxGeometry x="465" y="600" width="120" height="60" as="geometry" />
        </mxCell>
        <mxCell id="8y-FWkT5chtIzJiCy5gt-9" value="Slow, Accurate" style="text;html=1;strokeColor=none;fillColor=none;align=center;verticalAlign=middle;whiteSpace=wrap;rounded=0;" parent="1" vertex="1">
          <mxGeometry x="375" y="600" width="90" height="30" as="geometry" />
        </mxCell>
        <mxCell id="8y-FWkT5chtIzJiCy5gt-11" value="Frequency Count Hashtable&lt;br&gt;Aggregate or notï¼Ÿ&lt;br&gt;Aggregate in Memory or to Disk?&lt;br&gt;Flush every minute, when full?" style="text;html=1;strokeColor=none;fillColor=none;align=center;verticalAlign=middle;whiteSpace=wrap;rounded=0;" parent="1" vertex="1">
          <mxGeometry x="81.4" y="450" width="190" height="50" as="geometry" />
        </mxCell>
        <mxCell id="8y-FWkT5chtIzJiCy5gt-18" value="Kafka" style="strokeWidth=2;html=1;shape=mxgraph.flowchart.direct_data;whiteSpace=wrap;" parent="1" vertex="1">
          <mxGeometry x="280" y="490" width="100" height="160" as="geometry" />
        </mxCell>
        <mxCell id="8y-FWkT5chtIzJiCy5gt-2" value="API Gateway" style="rounded=1;whiteSpace=wrap;html=1;" parent="1" vertex="1">
          <mxGeometry x="106.4" y="510" width="120" height="60" as="geometry" />
        </mxCell>
        <mxCell id="8y-FWkT5chtIzJiCy5gt-3" value="" style="endArrow=classic;html=1;rounded=0;exitX=1;exitY=0.5;exitDx=0;exitDy=0;" parent="1" source="8y-FWkT5chtIzJiCy5gt-2" edge="1">
          <mxGeometry width="50" height="50" relative="1" as="geometry">
            <mxPoint x="196.4" y="590" as="sourcePoint" />
            <mxPoint x="280" y="540" as="targetPoint" />
          </mxGeometry>
        </mxCell>
        <mxCell id="8y-FWkT5chtIzJiCy5gt-29" value="Fast, Inaccurate" style="text;html=1;strokeColor=none;fillColor=none;align=center;verticalAlign=middle;whiteSpace=wrap;rounded=0;" parent="1" vertex="1">
          <mxGeometry x="380" y="490" width="90" height="30" as="geometry" />
        </mxCell>
        <mxCell id="8y-FWkT5chtIzJiCy5gt-30" value="Fast Counter Service&lt;br&gt;(Count Min Sketch)&lt;br&gt;Flushes every minute" style="rounded=1;whiteSpace=wrap;html=1;" parent="1" vertex="1">
          <mxGeometry x="480" y="490" width="120" height="60" as="geometry" />
        </mxCell>
        <mxCell id="8y-FWkT5chtIzJiCy5gt-31" value="" style="endArrow=classic;html=1;rounded=0;exitX=0.976;exitY=0.194;exitDx=0;exitDy=0;exitPerimeter=0;entryX=0;entryY=0.5;entryDx=0;entryDy=0;" parent="1" source="8y-FWkT5chtIzJiCy5gt-18" target="8y-FWkT5chtIzJiCy5gt-30" edge="1">
          <mxGeometry width="50" height="50" relative="1" as="geometry">
            <mxPoint x="580" y="640" as="sourcePoint" />
            <mxPoint x="630" y="590" as="targetPoint" />
          </mxGeometry>
        </mxCell>
        <mxCell id="8y-FWkT5chtIzJiCy5gt-32" value="" style="endArrow=classic;html=1;rounded=0;exitX=1;exitY=0.5;exitDx=0;exitDy=0;entryX=0.013;entryY=0.101;entryDx=0;entryDy=0;entryPerimeter=0;" parent="1" target="8y-FWkT5chtIzJiCy5gt-34" edge="1">
          <mxGeometry width="50" height="50" relative="1" as="geometry">
            <mxPoint x="600" y="526.06" as="sourcePoint" />
            <mxPoint x="760" y="526" as="targetPoint" />
          </mxGeometry>
        </mxCell>
        <mxCell id="8y-FWkT5chtIzJiCy5gt-34" value="Result&lt;br&gt;Storage" style="shape=cylinder3;whiteSpace=wrap;html=1;boundedLbl=1;backgroundOutline=1;size=15;" parent="1" vertex="1">
          <mxGeometry x="830" y="500" width="60" height="270" as="geometry" />
        </mxCell>
        <mxCell id="8y-FWkT5chtIzJiCy5gt-36" value="&lt;div&gt;&lt;b&gt;Count Min Sketch&lt;/b&gt;&lt;/div&gt;&lt;div style=&quot;&quot;&gt;Fixed size table in each node&lt;/div&gt;&lt;div&gt;Probabilistic - Stores upper bound for real count&lt;/div&gt;" style="text;html=1;strokeColor=none;fillColor=none;align=left;verticalAlign=middle;whiteSpace=wrap;rounded=0;" parent="1" vertex="1">
          <mxGeometry x="465" y="420" width="290" height="60" as="geometry" />
        </mxCell>
        <mxCell id="8y-FWkT5chtIzJiCy5gt-38" value="SQL, NoSQL&lt;br&gt;&lt;div style=&quot;&quot;&gt;&lt;span style=&quot;background-color: initial;&quot;&gt;Storage by Interval&lt;/span&gt;&lt;/div&gt;&lt;div style=&quot;&quot;&gt;&lt;span style=&quot;background-color: initial;&quot;&gt;Replicated&lt;/span&gt;&lt;/div&gt;" style="text;html=1;strokeColor=none;fillColor=none;align=left;verticalAlign=middle;whiteSpace=wrap;rounded=0;" parent="1" vertex="1">
          <mxGeometry x="820" y="440" width="120" height="60" as="geometry" />
        </mxCell>
        <mxCell id="8y-FWkT5chtIzJiCy5gt-42" value="pre-aggregation will greatly reduce the number of messages goes into Kafka" style="text;html=1;strokeColor=none;fillColor=none;align=center;verticalAlign=middle;whiteSpace=wrap;rounded=0;" parent="1" vertex="1">
          <mxGeometry x="51.4" y="640" width="220" height="30" as="geometry" />
        </mxCell>
        <mxCell id="8y-FWkT5chtIzJiCy5gt-43" value="" style="endArrow=classic;html=1;rounded=0;exitX=0.5;exitY=1;exitDx=0;exitDy=0;" parent="1" source="8y-FWkT5chtIzJiCy5gt-2" edge="1">
          <mxGeometry width="50" height="50" relative="1" as="geometry">
            <mxPoint x="186.4" y="630" as="sourcePoint" />
            <mxPoint x="166.4" y="590" as="targetPoint" />
          </mxGeometry>
        </mxCell>
        <mxCell id="8y-FWkT5chtIzJiCy5gt-44" value="Aggregator" style="rounded=1;whiteSpace=wrap;html=1;" parent="1" vertex="1">
          <mxGeometry x="106.4" y="590" width="120" height="40" as="geometry" />
        </mxCell>
        <mxCell id="8y-FWkT5chtIzJiCy5gt-45" value="" style="endArrow=classic;html=1;rounded=0;exitX=1;exitY=0.5;exitDx=0;exitDy=0;entryX=0.036;entryY=0.939;entryDx=0;entryDy=0;entryPerimeter=0;" parent="1" source="8y-FWkT5chtIzJiCy5gt-44" edge="1">
          <mxGeometry width="50" height="50" relative="1" as="geometry">
            <mxPoint x="256.4" y="640" as="sourcePoint" />
            <mxPoint x="279.9999999999999" y="610.24" as="targetPoint" />
          </mxGeometry>
        </mxCell>
        <mxCell id="8y-FWkT5chtIzJiCy5gt-46" value="Map-Reduce" style="text;html=1;strokeColor=none;fillColor=none;align=center;verticalAlign=middle;whiteSpace=wrap;rounded=0;" parent="1" vertex="1">
          <mxGeometry x="520" y="660" width="80" height="30" as="geometry" />
        </mxCell>
        <mxCell id="8y-FWkT5chtIzJiCy5gt-48" value="Frequency Counter Reducer" style="rounded=1;whiteSpace=wrap;html=1;" parent="1" vertex="1">
          <mxGeometry x="660" y="710" width="90" height="60" as="geometry" />
        </mxCell>
        <mxCell id="8y-FWkT5chtIzJiCy5gt-49" value="HDFS&lt;br style=&quot;border-color: var(--border-color);&quot;&gt;S3" style="shape=cylinder3;whiteSpace=wrap;html=1;boundedLbl=1;backgroundOutline=1;size=15;" parent="1" vertex="1">
          <mxGeometry x="495" y="700" width="60" height="80" as="geometry" />
        </mxCell>
        <mxCell id="8y-FWkT5chtIzJiCy5gt-50" value="" style="endArrow=classic;html=1;rounded=0;exitX=0.5;exitY=1;exitDx=0;exitDy=0;" parent="1" source="8y-FWkT5chtIzJiCy5gt-8" edge="1">
          <mxGeometry width="50" height="50" relative="1" as="geometry">
            <mxPoint x="630" y="730" as="sourcePoint" />
            <mxPoint x="525" y="700" as="targetPoint" />
          </mxGeometry>
        </mxCell>
        <mxCell id="8y-FWkT5chtIzJiCy5gt-51" value="" style="endArrow=classic;html=1;rounded=0;entryX=0;entryY=0.5;entryDx=0;entryDy=0;" parent="1" source="8y-FWkT5chtIzJiCy5gt-49" target="8y-FWkT5chtIzJiCy5gt-48" edge="1">
          <mxGeometry width="50" height="50" relative="1" as="geometry">
            <mxPoint x="560" y="740" as="sourcePoint" />
            <mxPoint x="595" y="739" as="targetPoint" />
          </mxGeometry>
        </mxCell>
        <mxCell id="8y-FWkT5chtIzJiCy5gt-52" value="" style="endArrow=classic;html=1;rounded=0;exitX=1;exitY=0.5;exitDx=0;exitDy=0;entryX=-0.04;entryY=0.884;entryDx=0;entryDy=0;entryPerimeter=0;" parent="1" source="8y-FWkT5chtIzJiCy5gt-48" target="8y-FWkT5chtIzJiCy5gt-34" edge="1">
          <mxGeometry width="50" height="50" relative="1" as="geometry">
            <mxPoint x="694" y="748" as="sourcePoint" />
            <mxPoint x="733.02" y="739" as="targetPoint" />
          </mxGeometry>
        </mxCell>
        <mxCell id="8y-FWkT5chtIzJiCy5gt-54" value="" style="endArrow=classic;html=1;rounded=0;exitX=1;exitY=0.5;exitDx=0;exitDy=0;entryX=0.013;entryY=0.472;entryDx=0;entryDy=0;entryPerimeter=0;" parent="1" source="8y-FWkT5chtIzJiCy5gt-8" target="8y-FWkT5chtIzJiCy5gt-34" edge="1">
          <mxGeometry width="50" height="50" relative="1" as="geometry">
            <mxPoint x="640" y="650" as="sourcePoint" />
            <mxPoint x="690" y="600" as="targetPoint" />
          </mxGeometry>
        </mxCell>
        <mxCell id="8y-FWkT5chtIzJiCy5gt-55" value="In Memory Aggregation, Expensive" style="edgeLabel;html=1;align=center;verticalAlign=middle;resizable=0;points=[];" parent="8y-FWkT5chtIzJiCy5gt-54" connectable="0" vertex="1">
          <mxGeometry x="-0.1664" y="4" relative="1" as="geometry">
            <mxPoint x="3" y="-10" as="offset" />
          </mxGeometry>
        </mxCell>
        <mxCell id="8y-FWkT5chtIzJiCy5gt-56" value="Apache Spark: Data Partitioning + In memory Aggregation + Calculate Top K with Heap + Reduce Operation" style="text;html=1;strokeColor=none;fillColor=none;align=center;verticalAlign=middle;whiteSpace=wrap;rounded=0;" parent="1" vertex="1">
          <mxGeometry x="106.4" y="760" width="273.6" height="70" as="geometry" />
        </mxCell>
        <mxCell id="QWQPAWSHBbOFJZBjrlaj-1" value="Raw vs Aggregated Data" style="text;html=1;strokeColor=none;fillColor=none;align=center;verticalAlign=middle;whiteSpace=wrap;rounded=0;" vertex="1" parent="1">
          <mxGeometry x="190" y="360" width="60" height="30" as="geometry" />
        </mxCell>
      </root>
    </mxGraphModel>
  </diagram>
</mxfile>
